# xmcd
#
# Track frame offsets: 
#        183
#        18868
#        52913
#
# Disc length: 1155 seconds
#
# Revision: 2
# Processed by: cddbd v1.5.1PL2 Copyright (c) Steve Scherf et al.
# Submitted via: ExactAudioCopy v0.95b3
#
DISCID=16048103
DTITLE=LaTour - Blue
DYEAR=1900
DGENRE=LC00309
TTITLE0=Blue (Single Edit)
TTITLE1=Blue (Full Length Version)
TTITLE2=Cold (Ralph's Club Mix)
EXTD=
EXTT0=
EXTT1=
EXTT2=
PLAYORDER=
